<svg xmlns="http://www.w3.org/2000/svg" width="1200" height="630" viewBox="0 0 1200 630" role="img" aria-labelledby="title desc">
  <title id="title">DemonTech Roadmap</title>
  <desc id="desc">Branded social preview for DemonTech Roadmap</desc>
  <rect width="1200" height="630" fill="#050505"/>
  <path d="M0 520 C180 430 300 620 480 520 S790 370 1200 470 V630 H0 Z" fill="#111827"/>
  <path d="M0 0 H1200 V630 H0 Z" fill="url(#grid)" opacity="0.35"/>
  <circle cx="914" cy="168" r="168" fill="#991b1b" opacity="0.28"/>
  <circle cx="1000" cy="492" r="120" fill="#0e7490" opacity="0.18"/>
  <g transform="translate(92 88)">
    <rect width="116" height="116" rx="20" fill="#000" stroke="#ef4444" stroke-width="3"/>
    <circle cx="58" cy="58" r="36" fill="#ef4444"/>
    <path d="M42 64 L55 77 L78 40" fill="none" stroke="#fff" stroke-width="9" stroke-linecap="round" stroke-linejoin="round"/>
  </g>
  <text x="92" y="274" fill="#ffffff" font-family="Arial, Helvetica, sans-serif" font-size="72" font-weight="900">DemonTech Roadmap</text>
  <text x="94" y="342" fill="#d4d4d8" font-family="Arial, Helvetica, sans-serif" font-size="32" font-weight="700">Clear learning paths. Real projects. Visible progress.</text>
  <g transform="translate(96 420)" fill="none" stroke-width="4">
    <rect x="0" y="0" width="172" height="66" rx="12" fill="#18181b" stroke="#ef4444"/>
    <rect x="236" y="0" width="172" height="66" rx="12" fill="#18181b" stroke="#22d3ee"/>
    <rect x="472" y="0" width="172" height="66" rx="12" fill="#18181b" stroke="#34d399"/>
    <path d="M172 33 H236 M408 33 H472" stroke="#71717a"/>
  </g>
  <text x="140" y="461" fill="#ffffff" font-family="Arial, Helvetica, sans-serif" font-size="22" font-weight="800">Choose</text>
  <text x="286" y="461" fill="#ffffff" font-family="Arial, Helvetica, sans-serif" font-size="22" font-weight="800">Build</text>
  <text x="520" y="461" fill="#ffffff" font-family="Arial, Helvetica, sans-serif" font-size="22" font-weight="800">Grow</text>
  <defs>
    <pattern id="grid" width="48" height="48" patternUnits="userSpaceOnUse">
      <path d="M48 0 H0 V48" fill="none" stroke="#27272a" stroke-width="1"/>
    </pattern>
  </defs>
</svg>
